<?xml version="1.0" encoding="utf-8"?>
<!-- Generator: Adobe Illustrator 16.0.0, SVG Export Plug-In . SVG Version: 6.00 Build 0)  -->
<!DOCTYPE svg PUBLIC "-//W3C//DTD SVG 1.1//EN" "http://www.w3.org/Graphics/SVG/1.1/DTD/svg11.dtd">
<svg version="1.1" id="Layer_1" xmlns="http://www.w3.org/2000/svg" xmlns:xlink="http://www.w3.org/1999/xlink" x="0px" y="0px"
	 width="60px" height="60px" viewBox="0 0 60 60" enable-background="new 0 0 60 60" xml:space="preserve">
<g>
	<g>
		<polygon fill="#FFFFFF" points="26.425,44.854 36.991,38.754 26.425,32.654 		"/>
		<path fill="#FFFFFF" d="M29.983,3.821c-14.65,0-26.527,11.877-26.527,26.527c0,14.65,11.877,26.528,26.527,26.528
			c14.649,0,26.527-11.878,26.527-26.528C56.511,15.698,44.633,3.821,29.983,3.821z M41.076,13.849
			c0.41,0.106,0.571,2.705,0.571,2.705c-0.337-0.261-0.712-0.455-1.128-0.562c-0.414-0.108-0.838-0.122-1.26-0.056
			C39.26,15.936,40.663,13.743,41.076,13.849z M35.548,20.97c0.705-2.723,2.821-4.53,4.728-4.037
			c1.906,0.494,2.88,3.101,2.174,5.824c-0.704,2.723-2.822,4.53-4.729,4.036C35.815,26.301,34.843,23.693,35.548,20.97z
			 M30.019,9.54c0.484,0,1.407,2.821,1.407,2.821c-0.445-0.193-0.917-0.299-1.405-0.299c-0.49,0-0.962,0.105-1.407,0.299
			C28.613,12.361,29.535,9.54,30.019,9.54z M30.019,13.172c2.245,0,4.064,2.6,4.064,5.806c0,3.206-1.819,5.806-4.064,5.806
			c-2.244,0-4.063-2.6-4.063-5.806C25.956,15.772,27.774,13.172,30.019,13.172z M19.029,13.849c0.411-0.106,1.814,2.087,1.814,2.087
			c-0.42-0.066-0.844-0.052-1.259,0.056c-0.416,0.107-0.792,0.301-1.128,0.562C18.456,16.554,18.62,13.955,19.029,13.849z
			 M19.829,16.934c1.905-0.494,4.021,1.314,4.727,4.037c0.705,2.723-0.268,5.331-2.174,5.824c-1.906,0.494-4.023-1.313-4.728-4.036
			S17.923,17.428,19.829,16.934z M12.143,21.878c0.309-0.174,1.915,1.294,1.915,1.294c-0.354,0.037-0.693,0.14-1.006,0.316
			c-0.311,0.176-0.574,0.414-0.788,0.698C12.263,24.186,11.833,22.052,12.143,21.878z M12.952,29.367
			c-1.156-2.046-0.932-4.361,0.501-5.17c1.431-0.81,3.529,0.193,4.686,2.24c1.156,2.046,0.933,4.361-0.5,5.168
			C16.208,32.416,14.108,31.414,12.952,29.367z M29.983,51.395c-6.98,0-12.64-5.658-12.64-12.641c0-6.979,5.66-12.639,12.64-12.639
			c6.979,0,12.64,5.66,12.64,12.639C42.623,45.736,36.963,51.395,29.983,51.395z M47.016,29.367
			c-1.156,2.047-3.256,3.049-4.688,2.239c-1.432-0.808-1.656-3.123-0.5-5.168c1.155-2.047,3.256-3.05,4.687-2.24
			C47.945,25.006,48.171,27.321,47.016,29.367z M47.703,24.186c-0.214-0.284-0.476-0.522-0.787-0.698
			c-0.312-0.176-0.652-0.279-1.007-0.316c0,0,1.606-1.468,1.917-1.294C48.133,22.052,47.703,24.186,47.703,24.186z"/>
	</g>
</g>
</svg>
