<?xml version="1.0" encoding="utf-8"?>
<!-- Generator: Adobe Illustrator 15.0.0, SVG Export Plug-In  -->
<!DOCTYPE svg PUBLIC "-//W3C//DTD SVG 1.1//EN" "http://www.w3.org/Graphics/SVG/1.1/DTD/svg11.dtd" [
	<!ENTITY ns_flows "http://ns.adobe.com/Flows/1.0/">
]>
<svg version="1.1"
	 xmlns="http://www.w3.org/2000/svg" xmlns:xlink="http://www.w3.org/1999/xlink" xmlns:a="http://ns.adobe.com/AdobeSVGViewerExtensions/3.0/"
	 x="0px" y="0px" width="512px" height="368px" viewBox="-32 -32 512 368"
	 overflow="visible" enable-background="new -32 -32 512 368" xml:space="preserve">
<defs>
</defs>
<path fill="#FFFFFF" d="M428,0H20C8.954,0,0,8.954,0,20v264c0,11.046,8.954,20,20,20h408c11.046,0,20-8.954,20-20V20
	C448,8.954,439.046,0,428,0z M16,160c-4.418,0-8-3.582-8-8s3.582-8,8-8s8,3.582,8,8S20.418,160,16,160z M416,276H32V28h384V276z"/>
</svg>
