<?xml version="1.0" encoding="utf-8"?>
<!-- Generator: Adobe Illustrator 16.0.0, SVG Export Plug-In . SVG Version: 6.00 Build 0)  -->
<!DOCTYPE svg PUBLIC "-//W3C//DTD SVG 1.1//EN" "http://www.w3.org/Graphics/SVG/1.1/DTD/svg11.dtd">
<svg version="1.1" id="Layer_1" xmlns="http://www.w3.org/2000/svg" xmlns:xlink="http://www.w3.org/1999/xlink" x="0px" y="0px"
	 width="450px" height="100px" viewBox="0 0 450 100" enable-background="new 0 0 450 100" xml:space="preserve">
<path opacity="0.8" fill-rule="evenodd" clip-rule="evenodd" fill="#FFFFFF" d="M450,78.928c-2.957-3.295-3.064-7.59-3.979-11.575
	c-1.477-6.445-1.634-13.789-6.822-18.319c-5.292-4.621-9.068-10.11-12.504-15.918c-4.643-7.848-4.503-7.975-9.421-0.194
	c-0.12,0.19-0.562,0.177-0.962,0.289c-0.749-1.061-1.594-2.093-2.262-3.229c-5.13-8.729-5.116-8.733-10.198-0.062
	c-0.103,0.175-0.555,0.144-0.98,0.239c-4.572-6.649-9.179-13.337-13.772-20.032c-5.267-7.676-7.217-7.938-13.936-1.894
	c-0.735,0.662-1.53,1.286-2.381,1.788c-9.218,5.436-13.094,15.987-21.371,22.352c-0.907,0.697-1.153,2.354-1.535,3.617
	c-0.789,2.617-2.056,4.492-4.649,6.002c-4.565,2.658-8.96,5.771-10.905,11.194c-1.08,3.013-3.689,5.467-6.438,5.694
	c-2.273,0.188-2.962-3.467-4.179-5.547c-0.979-1.674-1.519-4.151-3.922-3.981c-1.989,0.141-2.593,2.342-3.478,3.927
	c-2.751,4.929-4.48,10.406-8.049,14.894c-2.281,2.869-4.108,3.276-6.374-0.307c-4.167-6.591-8.667-12.975-13.141-19.365
	c-4.902-7.005-7.117-7.189-13.385-1.464c-0.852,0.778-1.924,1.32-2.747,2.122c-3.985,3.88-9.588,6.174-11.599,12.011
	c-0.784,2.277-2.29,0.729-3.035,0.043c-2.526-2.329-5.465-3.793-8.716-4.651c-3.511-0.929-5.774-2.918-6.77-6.523
	c-2.357-8.54-5.051-16.907-13.53-21.676c-1.432-0.805-2.731-1.89-3.971-2.983c-7.062-6.232-8.708-5.944-14.262,1.977
	c-3.069,4.377-5.452,9.308-9.877,13.28c-1.324-3.309-1.88-6.772-4.464-8.644c-6.291-4.554-9.778-11.143-13.608-17.527
	c-1-1.667-1.508-4.18-3.851-4.108c-2.274,0.069-2.809,2.541-3.778,4.236c-2.801,4.896-4.438,10.415-8.124,14.842
	c-2.322,2.788-4.017,2.718-6.062-0.442c-4.146-6.409-8.581-12.633-12.901-18.93c-5.236-7.631-7.15-7.87-13.949-1.773
	c-0.616,0.553-1.258,1.092-1.949,1.544c-7.469,4.895-13.2,10.84-14.562,20.317c-0.435,3.028-1.691,6.494-4.92,8.354
	c-10.397,5.991-13.387,5.151-19.099-5.423c-0.237-0.439-0.432-0.901-0.673-1.339c-0.951-1.723-1.512-4.224-3.687-4.373
	c-2.611-0.181-3.113,2.588-4.149,4.4c-2.72,4.754-4.358,10.091-7.844,14.436c-2.336,2.91-4.135,3.157-6.369-0.376
	c-4.166-6.591-8.665-12.976-13.145-19.363c-4.893-6.978-7.085-7.147-13.391-1.4c-0.853,0.776-1.823,1.43-2.771,2.096
	c-6.972,4.903-12.512,10.58-13.856,19.694c-0.738,5.007-3.729,8.552-9.384,10.344c-7.645,2.422-13.655,7.431-15.915,15.822
	C1.857,75.052,1.577,77.28,0,78.928h-0.06v32.5H450V81.646C450.269,81.03,450.271,80.158,450,78.928z"/>
</svg>
