<?xml version="1.0" encoding="utf-8"?>
<!-- Generator: Adobe Illustrator 15.0.0, SVG Export Plug-In  -->
<!DOCTYPE svg PUBLIC "-//W3C//DTD SVG 1.1//EN" "http://www.w3.org/Graphics/SVG/1.1/DTD/svg11.dtd" [
	<!ENTITY ns_flows "http://ns.adobe.com/Flows/1.0/">
]>
<svg version="1.1"
	 xmlns="http://www.w3.org/2000/svg" xmlns:xlink="http://www.w3.org/1999/xlink" xmlns:a="http://ns.adobe.com/AdobeSVGViewerExtensions/3.0/"
	 x="0px" y="0px" width="224px" height="352px" viewBox="-32 -32 224 352"
	 overflow="visible" enable-background="new -32 -32 224 352" xml:space="preserve">
<defs>
</defs>
<path fill="#FFFFFF" d="M140,0H20C8.954,0,0,8.954,0,20v248c0,11.046,8.954,20,20,20h120c11.046,0,20-8.954,20-20V20
	C160,8.954,151.046,0,140,0z M68,16h24c2.209,0,4,1.791,4,4s-1.791,4-4,4H68c-2.209,0-4-1.791-4-4S65.791,16,68,16z M80,276
	c-6.627,0-12-5.373-12-12s5.373-12,12-12s12,5.373,12,12S86.627,276,80,276z M148,240H12V32h136V240z"/>
</svg>
